<svg width="620" height="150" viewBox="0 0 620 150" fill="none" xmlns="http://www.w3.org/2000/svg">
<rect x="110" y="25" width="50" height="100" rx="25" fill="#6366F1"/>
<rect x="55" width="50" height="150" rx="25" fill="#6366F1"/>
<path d="M0 75C0 61.1929 11.1929 50 25 50V50C38.8071 50 50 61.1929 50 75V75C50 88.8071 38.8071 100 25 100V100C11.1929 100 0 88.8071 0 75V75Z" fill="#6366F1"/>
<path d="M239.672 56.968L218.168 109H199.352L177.944 56.968H196.664L209.144 88.744L222.296 56.968H239.672ZM244.387 56.968H262.627V109H244.387V56.968ZM253.507 51.208C250.179 51.208 247.491 50.28 245.443 48.424C243.395 46.568 242.371 44.264 242.371 41.512C242.371 38.76 243.395 36.456 245.443 34.6C247.491 32.744 250.179 31.816 253.507 31.816C256.835 31.816 259.523 32.712 261.571 34.504C263.619 36.232 264.643 38.472 264.643 41.224C264.643 44.104 263.619 46.504 261.571 48.424C259.523 50.28 256.835 51.208 253.507 51.208ZM293.393 109.864C289.041 109.864 284.753 109.384 280.529 108.424C276.305 107.4 272.913 106.088 270.353 104.488L275.825 92.008C278.193 93.48 281.009 94.664 284.273 95.56C287.537 96.392 290.769 96.808 293.969 96.808C296.913 96.808 298.993 96.52 300.209 95.944C301.489 95.304 302.129 94.408 302.129 93.256C302.129 92.104 301.361 91.304 299.825 90.856C298.353 90.344 295.985 89.864 292.721 89.416C288.561 88.904 285.009 88.232 282.065 87.4C279.185 86.568 276.689 85.032 274.577 82.792C272.465 80.552 271.409 77.416 271.409 73.384C271.409 70.056 272.401 67.112 274.385 64.552C276.369 61.928 279.249 59.88 283.025 58.408C286.865 56.872 291.441 56.104 296.753 56.104C300.529 56.104 304.273 56.488 307.985 57.256C311.697 58.024 314.801 59.112 317.297 60.52L311.825 72.904C307.217 70.344 302.225 69.064 296.849 69.064C293.969 69.064 291.857 69.416 290.513 70.12C289.169 70.76 288.497 71.624 288.497 72.712C288.497 73.928 289.233 74.792 290.705 75.304C292.177 75.752 294.609 76.232 298.001 76.744C302.289 77.384 305.841 78.12 308.657 78.952C311.473 79.784 313.905 81.32 315.953 83.56C318.065 85.736 319.121 88.808 319.121 92.776C319.121 96.04 318.129 98.984 316.145 101.608C314.161 104.168 311.217 106.184 307.313 107.656C303.473 109.128 298.833 109.864 293.393 109.864ZM381.701 56.968V109H364.325V103.432C362.405 105.544 360.101 107.144 357.413 108.232C354.725 109.32 351.877 109.864 348.869 109.864C342.149 109.864 336.773 107.88 332.741 103.912C328.773 99.944 326.789 93.992 326.789 86.056V56.968H345.029V83.08C345.029 86.984 345.765 89.832 347.237 91.624C348.709 93.416 350.853 94.312 353.669 94.312C356.549 94.312 358.885 93.32 360.677 91.336C362.533 89.288 363.461 86.184 363.461 82.024V56.968H381.701ZM415.626 56.104C424.266 56.104 430.858 58.088 435.402 62.056C439.946 65.96 442.218 71.976 442.218 80.104V109H425.226V102.28C422.602 107.336 417.482 109.864 409.866 109.864C405.834 109.864 402.346 109.16 399.402 107.752C396.458 106.344 394.218 104.456 392.682 102.088C391.21 99.656 390.474 96.904 390.474 93.832C390.474 88.904 392.362 85.096 396.138 82.408C399.914 79.656 405.738 78.28 413.61 78.28H423.978C423.658 72.776 419.978 70.024 412.938 70.024C410.442 70.024 407.914 70.44 405.354 71.272C402.794 72.04 400.618 73.128 398.826 74.536L392.682 62.152C395.562 60.232 399.05 58.76 403.146 57.736C407.306 56.648 411.466 56.104 415.626 56.104ZM414.954 98.344C417.066 98.344 418.922 97.832 420.522 96.808C422.122 95.784 423.274 94.28 423.978 92.296V87.784H416.106C410.794 87.784 408.138 89.544 408.138 93.064C408.138 94.664 408.746 95.944 409.962 96.904C411.178 97.864 412.842 98.344 414.954 98.344ZM453.731 37.768H471.971V109H453.731V37.768ZM483.825 56.968H502.065V109H483.825V56.968ZM492.945 51.208C489.617 51.208 486.929 50.28 484.881 48.424C482.833 46.568 481.809 44.264 481.809 41.512C481.809 38.76 482.833 36.456 484.881 34.6C486.929 32.744 489.617 31.816 492.945 31.816C496.273 31.816 498.961 32.712 501.009 34.504C503.057 36.232 504.081 38.472 504.081 41.224C504.081 44.104 503.057 46.504 501.009 48.424C498.961 50.28 496.273 51.208 492.945 51.208ZM559.231 95.368V109H511.23V98.248L535.327 70.504H511.903V56.968H558.271V67.624L534.175 95.368H559.231ZM619.884 83.08C619.884 83.208 619.788 84.712 619.596 87.592H581.772C582.54 90.28 584.012 92.36 586.188 93.832C588.428 95.24 591.212 95.944 594.54 95.944C597.036 95.944 599.18 95.592 600.972 94.888C602.828 94.184 604.684 93.032 606.54 91.432L616.14 101.416C611.084 107.048 603.692 109.864 593.964 109.864C587.884 109.864 582.54 108.712 577.932 106.408C573.324 104.104 569.74 100.904 567.18 96.808C564.684 92.712 563.436 88.072 563.436 82.888C563.436 77.768 564.652 73.192 567.084 69.16C569.58 65.064 573.004 61.864 577.356 59.56C581.708 57.256 586.604 56.104 592.044 56.104C597.228 56.104 601.932 57.192 606.156 59.368C610.38 61.48 613.708 64.584 616.14 68.68C618.636 72.712 619.884 77.512 619.884 83.08ZM592.14 69.064C589.324 69.064 586.956 69.864 585.036 71.464C583.18 73.064 581.996 75.24 581.484 77.992H602.796C602.284 75.24 601.068 73.064 599.148 71.464C597.292 69.864 594.956 69.064 592.14 69.064Z" fill="white"/>
</svg>
